<mxfile host="app.diagrams.net" modified="2024-01-25T15:49:24.141Z" agent="Mozilla/5.0 (Windows NT 10.0; Win64; x64) AppleWebKit/537.36 (KHTML, like Gecko) Chrome/120.0.0.0 Safari/537.36" version="23.0.1" etag="oyspO6oeaSRGbbH-Tagj" type="device">
  <diagram id="3sSW5fxXqacq_kQnYob0" name="PÃ¡gina-1">
    <mxGraphModel dx="265" dy="1573" grid="1" gridSize="10" guides="1" tooltips="1" connect="1" arrows="1" fold="1" page="1" pageScale="1" pageWidth="1169" pageHeight="827" math="0" shadow="0">
      <root>
        <mxCell id="0" />
        <mxCell id="1" parent="0" />
        <mxCell id="wylEA1u29GKuscuuTOL2-1" value="" style="shape=image;verticalLabelPosition=bottom;labelBackgroundColor=default;verticalAlign=top;aspect=fixed;imageAspect=0;image=data:image/jpeg,/9j/4AAQSkZJRgABAQAAAQABAAD/4gHYSUNDX1BST0ZJTEUAAQEAAAHIAAAAAAQwAABtbnRyUkdCIFhZWiAH4AABAAEAAAAAAABhY3NwAAAAAAAAAAAAAAAAAAAAAAAAAAAAAAAAAAAAAQAA9tYAAQAAAADTLQAAAAAAAAAAAAAAAAAAAAAAAAAAAAAAAAAAAAAAAAAAAAAAAAAAAAAAAAAAAAAAAAAAAAlkZXNjAAAA8AAAACRyWFlaAAABFAAAABRnWFlaAAABKAAAABRiWFlaAAABPAAAABR3dHB0AAABUAAAABRyVFJDAAABZAAAAChnVFJDAAABZAAAAChiVFJDAAABZAAAAChjcHJ0AAABjAAAADxtbHVjAAAAAAAAAAEAAAAMZW5VUwAAAAgAAAAcAHMAUgBHAEJYWVogAAAAAAAAb6IAADj1AAADkFhZWiAAAAAAAABimQAAt4UAABjaWFlaIAAAAAAAACSgAAAPhAAAts9YWVogAAAAAAAA9tYAAQAAAADTLXBhcmEAAAAAAAQAAAACZmYAAPKnAAANWQAAE9AAAApbAAAAAAAAAABtbHVjAAAAAAAAAAEAAAAMZW5VUwAAACAAAAAcAEcAbwBvAGcAbABlACAASQBuAGMALgAgADIAMAAxADb/2wBDAAMCAgICAgMCAgIDAwMDBAYEBAQEBAgGBgUGCQgKCgkICQkKDA8MCgsOCwkJDRENDg8QEBEQCgwSExIQEw8QEBD/2wBDAQMDAwQDBAgEBAgQCwkLEBAQEBAQEBAQEBAQEBAQEBAQEBAQEBAQEBAQEBAQEBAQEBAQEBAQEBAQEBAQEBAQEBD/wAARCAI7AeoDASIAAhEBAxEB/8QAHgABAAMBAQADAQEAAAAAAAAAAAgJCgcGAwQFAgH/xABnEAABAwIEAAUIFAoDCwoHAAAAAQIDBAUGBwgRCRIZITETGEFRV5XS0xQVIjc4VVZYYXF1dneBkpOWtLXUMjZCaJGlprPR5FKhohYXIyQzNFRic4XDRnKCg6OksbLBwiUmNUNTY8X/xAAUAQEAAAAAAAAAAAAAAAAAAAAA/8QAFBEBAAAAAAAAAAAAAAAAAAAAAP/aAAwDAQACEQMRAD8AtTAAAAAAAAAAAAAAAAAAAAAAAAAAAAAAAAAAAAAAAAAAAAAAAAAAAAAAAAIq8KP6BPM3/cv2xREqiKvCj+gTzN/3L9sUQFAIAAAAAAAAAAAAAAAAAA6rpO9FPk38IGHvtGA0pmazSd6KfJv4QMPfaMBpTAAAAAAAAAAAAAAAAAAAAAAAAAAAAAAAAAAAAAAAAAAAAAAAAAAAAAAAB/L3sjY6SR7WMYiuc5y7IiJ0qqgf0Dn2I9Q2QmEJVgxTnZgS1Tt3TqNXiGkilVe0jHScZV9hEPBV2vXSJQVK0aZ22munTm6nbaWqr3fop4ngd+Iq8KP6BPM3/cv2xRDOXXDganyhxRiPJS93qbE1ooHXOgfccusQy2+VIHJLLFM9KVjGMkiZJH1R0jGsV6PVyI1VIf578IrhTVfojzLwTW5e3/D2LoILPNUeRqWWutTmtu9IvHWqY3/F+NxHbJOjW7q1jXveqIoVggAAAAAAAAAAAAAAAAADquk70U+TfwgYe+0YDSmZrNJ3op8m/hAw99owGlMAAAAAAAAAAAAAAAAAAAAAAAAAAAAAAAAAAAAAAAAAAAAAAAAAD4a2to7dRz3C4VcNLS0sTpp55pEZHFG1FVz3OXma1ERVVV5kRCLGKdV2PM273V5faPcJx4hqadzYq3F1xYsdqoVVN/M8ZOy3ZWyPRVVHNfHBUsVVQJHY0x9gnLmzrf8AHmKrXYbfx0jbPX1LYUkkXmbGxHLu96rzIxqK5VVERFUjxXa3LhjqunsemTJDFGY9TC9YnXSdi221xvR3Fc100iKrJG7KvU50gVydDulU+5gjRDhequqY41D4or81cVyxq2Vbo9yW6JrkTjRNg3/wka7bOjdtTuVEc2CNeYklb7db7RQwWy1UNPRUdMxI4KenibHFExOhrWtREaidpEAjHHltrozOcyox5njhnLO2vkVz7ZhG0+SqiWFUVEY+aZ3GgkTmVXxTPaqpzJsuyfZp+D7yVu6MkzaxJmBmlUNk6ukmLMUVM6Nfvv5lsKx+YRfwWuVyIiInPsSbAHMsM6ZNO2DnMlw5khgikqI0RG1S2Snkqdk6N5ntWRfjcdHpaSkoYG0tDSw08LE2bHExGNb7SJzIfMAPLZn5a4VzfwLc8uMbwVc9ivKRMr4KWslpXzxMlZIsSyRK16MfxEa5Gqiq1zk35yLvCGZe4Gyw4PHMXCWXmE7Vh2z03lMsdHbqZsMfGW8UW73I1PNPXbnc7dyrzqqqTLIq8KP6BPM3/cv2xRAUAgAAAAAAAAAAAAAAAAADquk70U+TfwgYe+0YDSmZrNJ3op8m/hAw99owGlMAAAAAAAAAAAAAAAAAAAAAAAAAAAAAAAAAAAAAAAAAAAAAAH4OOcc4Vy3wtX4zxpeIbZaLcxHzzybqqqqojWMam7nvc5Ua1jUVznKiIiqqIfpXm82rDtorr/fbhBQW2208lXWVU70ZHBDG1XPe5y8yNRqKqr2kIg4Uw5e9dWPKfNTH9sqrfklhuoe3C2H6pjo34inaqsfWVUa9EXS3iLzqirFsjer9XD+LbYsxteVbBinFc93wRknTTpLarVBL1OsxFxV5p5HN3Tqa7btfzsTph47kZVpLXCeEMMYEsNLhjB9io7Ra6Nu0VNSxoxqKvO5y9lz3Lurnu3c5VVVVVVVP1YoooImQQRtjjjajGMYmzWtTmREROhD+wAAAAAAAABFXhR/QJ5m/7l+2KIlUcU1mZKYq1E6bMYZOYKuFqor1iDyv8jT3SWSOlZ1Cvp6h/HdHHI9N2QuRNmL5pU32TdUDOECf/Iqap/V9lV31uP3Ecipqn9X2VXfW4/cQIAAn/wAipqn9X2VXfW4/cRyKmqf1fZVd9bj9xAgACf8AyKmqf1fZVd9bj9xHIqap/V9lV31uP3ECAAJ/8ipqn9X2VXfW4/cRyKmqf1fZVd9bj9xAgACf/Iqap/V9lV31uP3Ecipqn9X2VXfW4/cQIAAn/wAipqn9X2VXfW4/cRyKmqf1fZVd9bj9xAgACf8AyKmqf1fZVd9bj9xHIqap/V9lV31uP3ECKuk70U+TfwgYe+0YDSmVF5IcETqSy1zowDmNfcbZaz23CuKLVe6yKkuVe6eSCmq45pGxtdRtar1axURFc1N9t1TpLdAAAAAAAAAAAAAAAAAAAAAAAAAAAAAAAAAAAAAAAAAAAAAHPc/s26PI/KTEOY9RSLW1dvp0itlA1rnOrrhK5I6WnRrfNLx5XsReKiqjeM7bmA4nnnUXPU9nLBpXwxX1tLgrDCU95zLulDMjFk427qW0Nei8Zr5FakjlTZUREVHbxuY6UlrtduslspLLZ6GCioKCCOlpaaBiMjhhY1GsYxqcyNa1EREToRDlml7JuuyayvgocU1flhjXEVRJf8XXJyte+qu1SvHmTjtREc2PdI2qiIiozjbIrlOugAAAAAAAAAAAAAAAAAAAAAAAAAAAAAAAAAAAAAAAAAAAAAAAAAAAAAAAAAAAAAAAAAAAAAAAAAAAAAAjhmDB/fp1aYOy2/y+GsoaNmO78zZHRyXqdXw2iF/Za+NrampTt7M9oka97I2OkkcjWtRVc5V2RE7anANG8D8T4OxTn5cI5PJ2bmJq3EFO6ePizR2iJ3kS1wqvZalLTxvT/bL2wJAgAAAAAAAAAAAAI767NUFTpRyIqsfWSho63EdzrorPZIKtVWJKmRr3rK9rVRXNZHG92yKm68VFVNyjXFGq/UzjK7zXzEGfWO5qqZVVeo3yop4mbrvsyKJzY2JuvQ1qJ7BZ7w2nnBYF9+CfUqgp5sdFFc71b7bO57YquqigerFRHI1z0Rdt+zsoHsuuEz97uGYH0mrfGDrhM/e7hmB9Jq3xhapyJeQXdXzA+VReIHIl5Bd1fMD5VF4gCqvrhM/e7hmB9Jq3xg64TP3u4ZgfSat8YWqciXkF3V8wPlUXiByJeQXdXzA+VReIAqr64TP3u4ZgfSat8YOuEz97uGYH0mrfGFqnIl5Bd1fMD5VF4gciXkF3V8wPlUXiAKq+uEz97uGYH0mrfGDrhM/e7hmB9Jq3xhapyJeQXdXzA+VReIHIl5Bd1fMD5VF4gCqvrhM/e7hmB9Jq3xg64TP3u4ZgfSat8YWqciXkF3V8wPlUXiByJeQXdXzA+VReIAqr64TP3u4ZgfSat8YOuEz97uGYH0mrfGFqnIl5Bd1fMD5VF4gciXkF3V8wPlUXiAKq+uEz97uGYH0mrfGDrhM/e7hmB9Jq3xhapyJeQXdXzA+VReIHIl5Bd1fMD5VF4gCqvrhM/e7hmB9Jq3xg64TP3u4ZgfSat8YWqciXkF3V8wPlUXiDxudPBBZJZZ5OY7zHtOZmOKquwphm6XumgqHUnUpZaWlkmYx/FhReKrmIi7Ki7KuyoBAPAOsnVHlvf6bEOHc9MYyyUz0ctLcrvPXUcyboqtkgnc6NyLttvtum/MqLzlllg4aLJ2WxW6XEmArxBd30kLq+KleroWVKsTqrY1Vu6sR/GRFXn22KbgBqoAAAAAAAAAAAAAAAAAAAAAAAAAAAAAAAAAAAAAAABx/V3ii6YS0248rLBFLJeLnbPKC1thXaTydcZWUNOrdufdJalip7R0XBGE7XgHBdgwLZEcluw5a6W00iO6Ugp4mxM3/6LEOSalWx4ixpkZlw2vdBLecxKe9TRpvtLTWiiqrgqL7HkiCkT23Id2AAAAAAAAAAAAAAK6uG084LAvvwT6lUFQOE/wAarN7oU/7xpb9w2nnBYF9+CfUqgqBwn+NVm90Kf940DUmAAAAAAAAAAAAAAAAAAByrVj6FjOT4P8Q/Z051U5Vqx9CxnJ8H+Ifs6cDNYAANVAAAAAAAAAAAAAAAAAAAAAAAAAAAAAAAAAAAAAAAAOF4sdbsQaz8urNMxyz4TwFiS/NXfmSSqrLbSRr8htUnxndDidktsNw1oYxvrZWufZMs8PW/i9lrqu6XaRyfopY1+NDtgAAAAAAAAAAAAABXVw2nnBYF9+CfUqgqBwn+NVm90Kf940t+4bTzgsC+/BPqVQVA4T/Gqze6FP8AvGgakwAAAAAAAAAAAAAAAAAAOVasfQsZyfB/iH7OnOqnKtWPoWM5Pg/xD9nTgZrAABqoAAAAAAAAAAAAAAAAAAAAAAAAAAAAAAAAAAAAAAABwbKqofVauc+1cqqlLacGUjfYRIK+Xb9My/pO8kf8mufVjqKXtJhFv6tkX/1JAAAAAAAAAAAAAAAFdXDaecFgX34J9SqCoHCf41Wb3Qp/3jS37htPOCwL78E+pVBUDhP8arN7oU/7xoGpMAAAAAAAAAAAAAAAAAADlWrH0LGcnwf4h+zpzqpyrVj6FjOT4P8AEP2dOBmsAAGqgAAAAAAAAAAAAAAAAAAAAAAAAAAAAAAAAAAAAAAAHA8lIXO1Paja1U8z5Y4XpUX2WWWJ6p/2yfpO+HFdPtVRXnMLPzEFLHs6XMWO2udv0pR2C0wr/wBo2X9J2oAAAAAAAAAAAAAArq4bTzgsC+/BPqVQVA4T/Gqze6FP+8aW/cNp5wWBffgn1KoKgcJ/jVZvdCn/AHjQNSYAAAAAAAAAAAAAAAAAAHKtWPoWM5Pg/wAQ/Z051U5Vqx9CxnJ8H+Ifs6cDNYAANVAAAAAAAAAAAAAAAAAAAAAAAAAAAAAAAAAAAAAAAfi41xTb8DYNv2Nrtv5Bw/bKq61Oy8/UoInSP/ssUDkukGkpZsC4yxlR1LaiDGGZGLrxFIn5UTbtPSRL8cdIxU9hUO6HINIWF3YP0wZYWaZsjamTDNFcKxJE2clXVxpU1G//AFs0h18AAAAAAAAAAAAAArq4bTzgsC+/BPqVQVA4T/Gqze6FP+8aXG8NRZbjXabsKXikppJae2YwgWqcxqqkTJKSpa17l7Ccbit37bmp2SmKkqp6GqhraWTiTU8jZY3bIvFc1d0XZeZedOyBqjBnW6/zWT64TFfz0fgjr/NZPrhMV/PR+CBopBnW6/zWT64TFfz0fgjr/NZPrhMV/PR+CBopBnW6/wA1k+uExX89H4I6/wA1k+uExX89H4IGikGdbr/NZPrhMV/PR+COv81k+uExX89H4IGikGdbr/NZPrhMV/PR+COv81k+uExX89H4IGikGdbr/NZPrhMV/PR+COv81k+uExX89H4IGikGdbr/ADWT64TFfz0fgjr/ADWT64TFfz0fggaKTlWrH0LGcnwf4h+zpyivr/NZPrhMV/PR+Cfn4h1uasMWWC54WxHnpiWvtN5o5rfX0k0rFZUU8rFZJG7zPQ5rnIvsKBxAA6BbNP8AnRebbSXi1ZbXuqoq6COppp44N2SxPajmPau/OioqKntgaaAAAAAAAAAAAAAAAAAAAAAAAAAAAAAAAAAAAAAA4VrTr6mXIa4Zf2uvSlumZd0tuBKJypvxvLOqjgqE9pKV1S9fYYp3Uj/j+V+YmrnLjL6Fzn2zLe0V2PrsxWI6J1bUNdb7axV/Jka2SvlRO0xF7W4d8gghpYI6amiZFFCxI42MTZrWomyIidhEQ+QAAAAAAAAAAAAAAA/FxngvCmYmF7jgrHGH6K92O7Q9QrKCsiSSKZm6Km6L0KiojkcmytVEVFRURSC2I+Bb013S6S11hxzj2y0svOlEyrpp44l36GOkhV/F225nOcvslgYArndwJWRX5ObmPE9tKNf+EfG7gSMkfyc4McJ7cVIv/DLHABW+7gR8mPyc5Map7dPSL/7D+HcCLk/+TnTjFPbpKVf/AGlkYArYdwImU35OduLU9uhplK/Nbmme36Uc7FyutF8rrxQSWilulPW1kbI5JWyq9rvMt5kRHxvb8RoqKdOG2fh5+dGX/kSugkvbMNSsrqdqqskVP5JctO53YRHOdUbJ0+ZXtpuFcQAAAACxDRvwW2HdSGRVrzfxnmHfcOzXqrqm0dJSUUT2PpopFiSTd/Pu57JPY2RDt3IhZWd3DFXe6m/iTT0m0eH6HTDlTTYXfE+2twfaXRPjcio5zqWN0jlX+kr1erujzSrzJ0HVwK1eRCys7uGKu91N/EciFlZ3cMVd7qb+JZUAK1eRCys7uGKu91N/EciFlZ3cMVd7qb+JZUAIH5TcDzpuwBiOnxJjG94hx2tI7jR265LFDQPdzbLJHG3jybbfgq/ir2WqTrpaWmoqaGioqeKnp6eNsUUUTEYyNjU2a1rU5kRERERE6D5QAAAAAAAAAAAAAAAAAAAAAAAAAAAAAAAAAAAAAAfDW1tJbqOe4V9THT0tLE6aeaVyNZHG1FVznKvMiIiKqr7BH7R5DV41tmNdSl3pZYKzN2+LX22OaNY5IbBRtWltcbmr0KsbZJubbdahV23VT62r3EV0xmuGtJ+Cq2WG/ZrTOhvNTB+Fa8MxLxrhUKuytR0jEWBjX7I/jyIi7ohIOyWa14cs1Bh6x0MVFbbXSxUVHTRJsyGCNiMjY1O01rURPaA+6AAAAAAAAAAAAAAAAAABHrUxrkyZ0oX+zYczQosSy1N9o31tI+1UMc7OIx/EcjldKxUXf2Ntl6SQpXrwmOi7PPVLj/B17yotVqnorFZ5qWqlrriyn3lknVyNai7quyIiquyJ5pNt+fYP338MnpIa1XJa8wXKifgpZoN1/TUHnbzw2GnWnik8ocssxa6ZqLxEqqehpmOX2XNqZFRPZ4vxEOOSG1k+kmFe/wBH4I5IbWT6SYV7/R+CB0zMnhr8273TVNFldlTh/C3VUVkVZcauS51Eaf02tRsUaO9hzXonslf2PcfYyzQxbccdY/xDV3u/XaXq1XW1TkV8juhERERGtaiIiI1qI1qIiIiImxLXkhtZPpJhXv8AR+COSG1k+kmFe/0fggQrBNTkhtZPpJhXv9H4I5IbWT6SYV7/AEfggQrBNTkhtZPpJhXv9H4I5IbWT6SYV7/R+CB+BpY4SjPHTDhyHANPRW3F2EaZ7301turpGy0fGXdzaedq7sYq7rxHNc1Fc5URFVSaWC+G3ycrqZP74WTuMbNU8VOaz1FLco1d2fNSvp1ROnsKRM5IbWT6SYV7/R+COSG1k+kmFe/0fggTmg4ZfSVK3jSWXMSFf6L7PTKv9mpVDpmn/hFsgtSeY1Plfl1QYtZeKmlnrGvuNuihgbHE3jO3c2Zy79CIiIvOpWbyQ2sn0kwr3+j8Ekfwf/B/6jdOOo235k5k2eyR2SO111FJJRXWOd7Hyx+YVWcyqm7dubdd1Tm23VAtFAAAAAADymbGOv71+VmMszPKvyz/ALksP3G++Qur9R8leRaaSbqXVOK7icbqfF43Fdtvvsu2wHqwVV8ud+a7+238gOXO/Nd/bb+QAtUBVXy535rv7bfyA5c78139tv5AC1QFVfLnfmu/tt/IDlzvzXf22/kALVAVV8ud+a7+238gOXO/Nd/bb+QAtUBVXy535rv7bfyA5c78139tv5AC1QFVfLnfmu/tt/IDlzvzXf22/kALVAVV8ud+a7+238gOXO/Nd/bb+QAtUBVXy535rv7bfyBaoAAAAAAAAAAAA8vmZmRhHKLA12zExzckorPZoOrTP5lfI5VRrIo2qqcaR71axrd+dzkQ/avl8s2GbNW4ixFdKW22u2wPqqysqpUjigiYm7nvcvMiIiKqqpEnC1LiDXHmVR5hYioaq25H4IuTpMP2mqjVj8T3GLdq1VRG5OaFi8ZOIvRzxu806ojYHttJeBcV3uov+qLNiiSnxnmW2N1BQuY9q2SwM2Wkoka7na5yIkknM1XLxFc1r0dvI4AAAAAAAAAAAAAAAAAAAAAAAAAAAAAAAAAAAAAAAAAAAAByrVj6FjOT4P8AEP2dOdVOVasfQsZyfB/iH7OnAzWAAAAAAAAAAAAAAAAAAAaqDKuaqAAAAAAAAfDWVlJb6Savr6qGmpqdjpZppnoyONiJurnOXmRETnVVA+Y83mDmLgzKzDFTjHHl9gtVrplRnVHo575ZHfgxRRtRXyyu22bGxFc5ehFOE5ga17JPd1wDpywtV5pYvmaixrbkXythau+0rp+ZJWKiLxZGq2ncqcV1REp9bAuk7E+OsUU+aurPFEeL77En+JYcgX/4PQMVN+pvj24snsxtRGO2RJXVKtZIgeVpbJj/AF53qjxHiXyxwnkVb6htTb7WyTqdXiZ7Hbsme9i/5NFRFa9qqxvTEsknEngmDZrNacO2mjsNhttNb7bboGU1JSU0aRxQRMRGtYxqczWoiIiIh9qOOOGNsUTGsYxEa1rU2RqJ0IidhD+gAAAAAAAAAAAAAAAAAAAAAAAAAAAAAAAAAAAAAAAAAAAAAAcq1Y+hYzk+D/EP2dOdVOVasfQsZyfB/iH7OnAzWAAAAAAAAAAAAAAAAAAAagcxMzsvMpMNzYvzMxlacNWeFVatVcalsTXv4qu6nGi88kio1dmMRXLtzIpl+LTdVHB5anW5tUGeltzEvudtqtl0huE1BVTU8d9pKSOdZnwU0M8b6KRqNb5lrIkar37JTObuiha2CP8AedKeKr21yVOsXPqLjf6LdrVTfubezY5/iDg6m4lifBetYeoe4RSbosVdiyOeP4mrDsnxIBKTFGOsE4IpfJuNMY2OwU+3G6tdLhDSs27fGkcibHFcT6+NMNguDLFZ8dy4uvU7HPprbhqhlr5Klqbb9TlaiQO6U/8Auc+/MchsHBVYBwtI+WzZs3epfK7jSLfMLWK79UXtv8lUj+P8e51OwaZM7cG0XlbgjVbNY6Tm2p6TLnD8MfN0eZhgjQD8d+f+rXNSNI8k9Mk2E6Koj40V6zDn8huiVehslC1WytXbnR8aztTstXmR38xaMsYZo1TLrqpzwvWNGNkSaPD9pXyvtkKoqK1q8RG8ZzFTds0UdPMnNu9VRVX1aZOatIl3h1mwyJ2qjLi3u/8AJKw+9R5cauqNyK/VHg2tROxVZYrz+31K5sA6jgfL3A+WtnSwYCwtbrHQq9ZXxUcCMWaRemSR34Uj16Ve9Vcq9KqehOK1li1m0rNrXmdk1cHJ/peCLpTKvxsusif1H5bX696aTzUGQNxYnalvVEq/2Ztv6wO/A4lLjDWHaqXj1eROWN8lROdLXmHVwKvtNqLUif2j6lDnXqVhm4mIdGF8SJPwpLPjey1nN7DZ5adVA7wDg82q2otlYlHiPTFnvbOfZ0seE47nG347fUVG6e0inyTa3NNVtrmWvFGO67ClW9URYsT4cudm4ir2HPrKeNie3xtgO6A8lg3N7KfMV6xZfZnYTxM9reMrLPeqascidtUie5UPWgAAAAAAAAAAAAAAAAAAAAAAAAAAAAAAAAAAAAAAAADlWrH0LGcnwf4h+zpzqpyrVj6FjOT4P8Q/Z04GawAAAAAAAAAAAAAAAAAADVQZVzVQAAAAAAAAAAAAAAB0gAc2xjps0+Zgvnnxnkpgm61VSi9UrJ7HT+St17KToxJWr7KORTx7dJNnwu2J+TGcGZuXTqWNzaaio8QyXa1o9d9ldRXNKmPb/VZ1P2FTpO8gDgEuLNVWT7OrY5whZ84MN07W9VuuD6dbbf4mI1VfI+1zSPhqV32Tanna9fyYlVdjrGXGZmBs28LQYzy9xDBd7TPI+FZY2ujfDMxdnwyxPRJIZWrzOje1rk7KHpzgf/yzlLq1/KstFnHYP9RtFcMQW6X9LKp9JP7CStpuy6MDvgAAAAAAAAAAAAAAAAAAAAADglXrx0gUFVNQV+feGqapppHQzQzPlY+N7V2c1zVZuioqKiovOiofF1/mjb1wmFfnpPAAkACP/X+aNvXCYV+ek8Adf5o29cJhX56TwAJAA5nlbqWyIzsvFXYMqczLRia4UNN5MqYKFXuWKHjtZx3KrURPNOanTuvxKdMAAAAAAAAAHKtWPoWM5Pg/xD9nTnVT6l2tNqv9qrbFfbZSXG23GnkpKyjq4WzQVMEjVbJFJG5Fa9jmqrVaqKioqooGWIGlPrTtLHracqvobbvEjrTtLHracqvobbvEgZrAaU+tO0setpyq+htu8SOtO0setpyq+htu8SBmsBpT607Sx62nKr6G27xI607Sx62nKr6G27xIGawGlPrTtLHracqvobbvEjrTtLHracqvobbvEgZrAaU+tO0setpyq+htu8SOtO0setpyq+htu8SBmsBpT607Sx62nKr6G27xI607Sx62nKr6G27xIGawGlPrTtLHracqvobbvEjrTtLHracqvobbvEgZrDVQcq607Sx62nKr6G27xJ1UAAAAAAAAAAAAAAAAAAAB5jMfLPA2beFp8GZhYegu9pnkZMkUjnRvhmYu7JopWKkkMrV52yMc1ydhT04A4BFhPVVk+zqOBsX2fODDdO13UrVjCoW23+JiNRGRsukMb4ald913qIGvX8qVVXc+Z2raz4XbKzOfJ/M3Lp1LG11TW1mHpLta0eu26NrbYtTHt/rP6n7KJ0HeQBzbB2pPT5mC+CDBmdeCbrVVKJ1OjgvlP5K3XsLAr0lavsK1FOk9J5LGWUOU+Yr0lzByxwniZ7W8VH3iy01Y5E7SLKxyoc4h0R6arbXPumF8CV2FKt6qqS4YxHc7NxFXstZR1EbE9ri7Ad0BweHSlUWysWsw5qdz3tnPu2KTFkdzjb8Vwp6jdPbVRXZKalYZuPh7WffEiT8GO8YIstZzey6CKnVQO8A4lFg/WHaqXiUme2WN8lROZbpl5VwKvtup7qif2T85zNe9NJ5mfIG4sTtxXqiVf7U239YHfgcVo77rNpWb3TLHJq4OT/RMb3SmVfifapE/rPr1mY+rqjcqM0uYNrUTs0uZy8/tdVtjAO5Aj+ucerSJdptGUMidunzHt7v/ADxMPlizs1Mp/nOiu+J2+o45sj//ADTNA72DiMOdmfK/5zo0xs3/AGWKcOP/APGvafdizpzcX/L6QcyG/wDMvmGHf+N1QDsIOTtzlzKVPN6S80k9q6YWX/8AsEHNMuv7UxPnJfMiLzlNiLN622S8VNuZc6KOjivVDTxzPjY+smgkW3SbIxGq7qrGK7derv3TcKvM2PPTxl74Lj9ZkPKnqs2PPTxl74Lj9ZkPKgAABY5wJHn3Zge9Vn1uImFwgevmx6XMNyYFwJUUtyzPvFPvTQLtJFZoXpzVVQ3oV69McS/hL5p3mU2fWJoizzx7p4tebuZGXOCajEN3p8LQ07ZWsR8FqY+rjRa6oZvxnxxqicyIvmnN42zeMqRwxVinEeN8R3HF2LrzVXa83eofV1tbVSK+WeVy7q5y/wDp0ImyJsiAabssauqr8tsJ19fUy1NTU2Ogmmmmer3yPdTsVznOXnVVVVVVXnVVPTHlMpvOrwb737d9WjPVgAAAAAAAAAAAAAAAAAAAAAAAAAAAAAAAAAAAAAAAAAAAAAAAAAAAAAAAAAAAAAAAAAAAAAA8/gbL7A2WWHoMJ5eYStWHbPTqrmUdtpWQR8Zel6o1E4z1253Lu5V51VT0AAzA5seenjL3wXH6zIeVLPsWcC/mpijFV5xN/fmwpTeW9wqK7qHkKpf1Lqsjn8Tjc3G2422+yb7dCH5XIhZqd3DCne6p/iBWsCynkQs1O7hhTvdU/wARyIWandwwp3uqf4gfm8CnSUtfnJmNQ11NFUU1RhFIpoZWI9kjHVUSOa5q8yoqKqKi8yop+JwjfB4VWRdfWZ1ZNWuWoy7rZuPcbdEivfh+Z7v0rSucuzXfkKqNXmVqrMvQTwfuNNH+YOI8X4jx/ZMQ018syW1kVFTyxPiek8ciOXj8yoqNcnTvvt09ibFxt1vvFvqrTdqGCtoa2F9PU01RGkkU0T2q17HtdujmqiqiovMqKB53Kbzq8G+9+3fVoz1Z9S02qgsdqorJaoOoUVvp46Wmi4zncSKNqNY3dyqq7IiJuqqvbPtgAAAAAAAAAAAAAAAAAAAAAAAAAAAAAAAAAAAAAAAAAAAAAAAAAAAAAAAAAAAAAAAAAAAAAAAAAAAAAAAAAAAAAAAAUs8INwhmcmJM4MR5S5S40r8I4SwjX1FolqLLVvgqrpUxO6nNJJOxUckaPa9rGMVEVN1crt04sPOuEz97uGYH0mrfGDUL5/uZfvwvP12UkxweWhjLvWFZcbXLG+LsR2WXDFVQwU6Wp0HFlbOyVXcfqsbudFiTbbbpUCM/XCZ+93DMD6TVvjB1wmfvdwzA+k1b4wtU5EvILur5gfKovEDkS8gu6vmB8qi8QBVX1wmfvdwzA+k1b4wdcJn73cMwPpNW+MLVORLyC7q+YHyqLxA5EvILur5gfKovEAVV9cJn73cMwPpNW+MHXCZ+93DMD6TVvjC1TkS8gu6vmB8qi8QORLyC7q+YHyqLxAFVfXCZ+93DMD6TVvjB1wmfvdwzA+k1b4wtU5EvILur5gfKovEDkS8gu6vmB8qi8QBVX1wmfvdwzA+k1b4wdcJn73cMwPpNW+MLVORLyC7q+YHyqLxA5EvILur5gfKovEAVV9cJn73cMwPpNW+MHXCZ+93DMD6TVvjC1TkS8gu6vmB8qi8QORLyC7q+YHyqLxAFVfXCZ+93DMD6TVvjB1wmfvdwzA+k1b4wtU5EvILur5gfKovEDkS8gu6vmB8qi8QBVX1wmfvdwzA+k1b4w/qPURqAiekkWeeYLHtXdHNxPWoqL7fVS1LkS8gu6vmB8qi8QQD1/aXMIaSc47NlxgvEN4vFDcsM097knuixLK2WSqqoVYnU2NTio2navRvuq8/QBKngxtfuaF+zRoNPudeLKvE1BiGN8diu1zmWSspKuONz0hfMqcaZkjWqiLIquR6NRF2dsW0GdfQCm+srKf3fZ+7eaKAAAAAAAAAAAAAAAAAAAAAAAAAAAAAAAAAAAAAAAAABG3Uxr+096X6pLBi29VV9xM6NX+UViYyoqYe11dznNZBv2nO4ypzo1UOPcJXr4qdPVqTJzKetj/vg3ul6pWV7VR3lFSPTzL0T/SJEVVZv+C3za9LN6T6urqq+qmrq6plqampkdNNNM9Xvke5d3Oc5edVVVVVVedVUCyzGPDeZiVNTO3L/ACPw5bqdHKkDrzcJ616t7CubF1FEVenZFXbo3XpX+8FcN5j6nq6dmYuSGH6+mVyJPJZLhNRyInZcxk3VUVU6dlcm/RunSVlgDQ3pt18ad9Ts6WXB2Ip7NiTiI7yhvjWU1XJ0b9RVHOZNsvYY5Xbc6tRCRplcpKuqoKqGuoamWmqaaRssM0T1Y+N7V3a5rk50VFRFRU50VC6jg0NfVdqAoFyVzdrmPx9Z6XqtvuTlRq3ykYnmlenR5IjTncqfht81tu16qE+wAAAAAAAZltQvn+5l+/C8/XZSyrgOvxVzb90LP+7qitXUL5/uZfvwvP12Usq4Dr8Vc2/dCz/u6oCz8AAAAAAAAAAAAAAAAAAClbhq/RT4W+D+h+0biXUlK3DV+inwt8H9D9o3EDgXB/JvrMyo93m/upDRMZ2+D6TfWblR7uf8GQ0SAAAAAAAAAAAAAAAAAAAAAAAAAAAAAAAAAAAAAAA81mXj2zZW5eYkzIxAq+V2GbXU3Woai7OeyGNz+I3/AFnbcVPZVD0pD3hYMVVWGtF+JqOkqFhff7lbbU5W8yuYtQ2Z7fjbCqL7CqgFHuZOPr/mnj/EGY2KahZrriO4z3GqdvzI+R6u4re01qKjUTsIiIebAAAAAeky2x9f8rMf4fzGwtULDdcOXGC40rt+ZXxvR3Fd22uRFaqdlFVDzYA1B5a47s+aOXuG8x7Aq+V2JrVS3Wnart3MZNG1/Ed/rN43FX2UU9KQ74J3GVRizRlh2hqqhZpMNXO42bjKvOjEm6uxq+0yoaiewiExAAAAAADMtqF8/wBzL9+F5+uyllXAdfirm37oWf8Ad1RWrqF8/wBzL9+F5+uyllXAdfirm37oWf8Ad1QFn4AAAAAAAAAAAAAAAAAAFK3DV+inwt8H9D9o3EupKVuGr9FPhb4P6H7RuIHBuD3TfWflT7tr+4lNERnf4PNN9aGVPuy76vKaIAAAAAAAAAAAAAAAAAAAAAAAAAAAAAAAAAAAAAAAQw4XKzPumjG81zInPS0Xy11rlRN+Ijpuobr2uedE+MmeeAz+yxp85slMa5WztZxsSWWpoqdz1REjqVYqwPXf+jKkbv8AogZlgfbvNoueH7vXWC9UclHcLbUy0dXTyJs+GaNysex3so5FRfaPqAAAAAPs2u13C93OjstppJKqur546WmgjTd8sr3I1jGp2VVyoie2BeDwPeHnWXR9HcnMVqX/ABPcri1V/KRqRU26fHTKnxE3jnWnXKyHJPIzA+VcTGNlw7Zqemq1YqK19WrePUvTbm81M+R3xnRQAAAAADMtqF8/3Mv34Xn67KWVcB1+KubfuhZ/3dUVq6hfP9zL9+F5+uyllXAdfirm37oWf93VAWfgAAAAAAAAAAAAAAAAAAUrcNX6KfC3wf0P2jcS6kpW4av0U+Fvg/oftG4gcK4PBN9aWVXuxJ9WmNDxnj4OxN9amVXutL9VmNDgAAAAAAAAAAAAAAAAAAAAAAAAAAAAAAAAAAAAAAAAFTHCsaF7pRXe46p8p7VUVtBXKs+M7bAxXvo5Eam9xY1OdYnIn+GT8hydU52uesdXxqmkjZKx0UrGvY9Fa5rk3RUXpRUK79TvA/5e5jXCsxhkFf4MD3mrldNNZ6xjn2iRzlVV6nxEWSm516Go9idCMaBTSCTmNeDX1n4Kr5qOXJmuvMMfOyrstVBWRTN7bUY/qidHQ5jXex0H1sHcHLrNxpXQUlLkhd7VHMuzqm8yw0MUSf0nJK9H7ewjVX2AI2FmHBUaHL3e8T23VBmlZ56GyWhyVGEqKpjcx9wqdvM1ytXZeosRd41/Lfs5PMs8117S9wPuBcAVtHjDURe6XGl3pntlisVE1yWmNybKnVVeiPqdlRfMqjGL0K1yFi8UUUETIIImRxxtRjGMaiNa1E2REROhEQD+wAAAAAAAZltQvn+5l+/C8/XZSyrgOvxVzb90LP8Au6orV1C+f7mX78Lz9dlLKuA6/FXNv3Qs/wC7qgLPwAAAAAAAAAAAAAAAAAAKVuGr9FPhb4P6H7RuJdSUrcNX6KfC3wf0P2jcQOHcHSm+tXKv3Vm+qTmhozz8HKm+tfKv3TqPqc5oYAAAAAAAAAAAAAAAAAAAAAAAAAAAAAAAAAAAAAVAcJfwhOKb9jC66fMkcRVFpw/Y5pKLEN4oKjizXSpTzMlNHI3nZDGvGa7Zd3uRyL5lPNBL3VTwmeRunR1VhfDszceY0hRzFtlsqG+RaOTbm8k1KbtaqLtuxiOenQqN6SqzODhENWWbuI5b27Nq+YRo91SmteFa+a2U8DN1VGqsT0kkXn/Ckc5faTmI2AC1XRpwuMaMo8u9VlQrVa1kFHjCCBV43QiJXRMTff8A/cxP+c3peWeYUxfhXHVipcT4LxHbb7aK1iPp6631LKiGRFTfmexVTs9HShluPbZZZ25u5M177jlZmNf8MSyuR0zbdWvjinVOjqkW/Ek6E5nNUDTkCjHDXDAaw7FSw09yrMHYhfE1GumuVj4j5fZd5Gkibv7SIfDinhedY+IY5Y7XeMKYb6oiojrVY2PVm/8AR8lOm/r3AvFvt/sWF7TU37Et6obTbaNnVKisrqhkEELe2971RrU9tStfWXwt1jsdPW5d6WaqK7XOWPqVTi98SrS0ir0pSRvT/CyJ/wDkcnERehH9KVlZm585z5yztmzSzPxHiVrHceOCvr3vp4ndtkO/U2dP5LUPBgSays4R7V5lde2XRM2rniqkWRX1FtxNI64QTIqoqt4z16rH0c3U3t29rmLMdL3Cq5I541FLhPMWNmXeK5+JHGyuqUfbayVVROLFUqicRyqvMyRG9pHOUo0AGqdrmvajmuRWqm6Ki8yof6U28GTr7xDgPF9q095wYgqLhhC+TMobBX1knHfZqx7to4lkcu/kaRV4uy7pG5WqnFary5IAAAMy2oXz/cy/fhefrspZVwHX4q5t+6Fn/d1RXJqgstxw9qRzSs91ppIKiDGF3VWvarVVjquRzHoi9hzXNci9lHIp9bKvURnZkhS3CiymzGuuGIbrJHLWtoHMb1dzEVGK5Vaqrsjnbe2vbA0xgzrdf5rJ9cJiv56PwR1/msn1wmK/no/BA0Ugzrdf5rJ9cJiv56PwR1/msn1wmK/no/BA0Ugzrdf5rJ9cJiv56PwR1/msn1wmK/no/BA0Ugzrdf5rJ9cJiv56PwR1/msn1wmK/no/BA0Ugzrdf5rJ9cJiv56PwR1/msn1wmK/no/BA0Ugzrdf5rJ9cJiv56PwR1/msn1wmK/no/BA0Ugzrdf5rJ9cJiv56PwR1/msn1wmK/no/BA0UlK3DV+inwt8H9D9o3Ej/wBf5rJ9cJiv56PwTl+aGb2ZedN/p8U5qYyuGJbtS0bLfDV1rkc9lO173tjTZE5kdLIvtuUDsfBxJvrZys90qn6lOaFjP1wZNhut81sZdvtlG+dlslrq+rcnRDAyjmar3L2uM9jfbcidk0CgAAAAAAAAAAAAAAAAAAAAAAAAAAAAAAAAAABzbUlmV/efyDx9mXHN1KpsNhq6ijdzf52sasp05+3M6NPjM0lRUVFXUS1dXPJNPO90kskjlc571XdXKq86qqruql4PDDY2kwxpITDlPUKx+LsSUFtlYi874YkkqnKvsI+mi+NUKOgAAAAAAAAAAAAAD+o5JIZGTQyOZIxyOa5q7K1U6FRewpo90Z5v1GemmTAOY9xq/JN0rLWlJdJFXzT62me6nne7sor3xK/2novQpnALneBXxt5c6fMWYHml482G8TuqI27/AIFPVU8atTb/AGkM6/GBYWAAI26mtAOn3VLc24nxnbLhZcTti6i692OWOCpqGoiIxJ0ex7JuKjURFc3jI3zKORNto9O4ErIb8nNnHye35CX/AIJYuAK5XcCTkb+Tm9jpPbZRr/wj43cCPkp+TnFjdPbhpF/4ZY8AK3ncCNk3+TnNjNPbpqVf/afG7gRMo/yc68Xp7dFSr/6FkoAqV1B8ETgTKHJPGmaOHM08S3evwtaJ7pHRVFHAyOVsScZ/Gc3nREYjnc3aKwTTjng/DzMl8e/3W10FHZHYaubLhUTqqMjp3U0iSOdtz7cVV5k517BmOAAAAdR0xZKT6h89cJ5QRVdRRw36rc2rq4I0e+mpo43SzSIi826MY7bfm32OXE/eBeo8Pz6nsQ1NzfF5ZU2D6p1tZI5EXjLVUzZHMTsuRiqn/Nc7m7KBIHkQsrO7hirvdTfxHIhZWd3DFXe6m/iWVACtXkQsrO7hirvdTfxHIhZWd3DFXe6m/iWVACtXkQsrO7hirvdTfxPkp+BEykbOx1VnZi6SFF82yOipmOVO0jlRUT9ClkwA45pv0mZL6WcPy2bK7D721taxjLjea56TXCv4vOnVJERERqKqqjGNaxF5+LvznYwAAAAAAAAAAAAAAAAAAAAAAAAAAAAAAAAAAAAqq4cPFj+NlPgaF+zNrrdqhu/Sv+LxRL8X+G/SVWFgfDUX7ydqXwtYo5ONHa8GUz3J/RllrKpXJ8hsalfgAAAAAAAAAAAAAALMeBAxR5FzEzQwUsn/ANTstBdEZv8A6LO+NV/72n9RWcTT4IfFHlBrKtlq6pxf7pbBdLXtv+FxY21W3/dd/iAvVAAAAAfn4hvdLhqwXPEdfHLJTWqjmrZmQoivcyJivcjUVURV2au26om/ZQhLyyWkf0tzA7zQfeCZWYdqr75gDE1ktUHV624WetpaaLjNbx5ZIXtY3dyoibqqJuqonbKS+SG1k+kmFe/0fggTeuHDP6UqRu9LhbMmtdtzJFaaNqfGr6tpzjHPDfYRp4Vjy1yKu9dK5Nkmvl0ipGsXt9ThbKr/AGuO32yNHJDayfSTCvf6PwRyQ2sn0kwr3+j8EDwuprhC9QeqC1vwpia4W/D+FHyNkfY7JC6KKoVuytWeR7nSS7Km/FVyM32Xi7oipGUmpyQ2sn0kwr3+j8EckNrJ9JMK9/o/BAhWCanJDayfSTCvf6PwRyQ2sn0kwr3+j8ECFZ6rK/NDHGTWOrVmPlzfp7RfrPN1WnqI+dHJ0Oje1eZ8bm7tcxd0VFVFJVckNrJ9JMK9/o/BHJDayfSTCvf6PwQO15ccN1iWkgp6PNjJKguT2sRs1fYbk6lVyp0u8jyteiqva6oib/1dvoeGj0r1MbFq8HZl0kitTjo610T2tXsoitq1VU9nZPaQhLyQ2sn0kwr3+j8EckNrJ9JMK9/o/BAnVyyWkf0tzA7zQfeCXmU2ZuHs5cubDmhhOGtis+IqXyZRsrY2xzpGrlanHa1zkRV4u+2682xSzyQ2sn0lwr3+j8Et50m5d4oym05YDy2xpSRU17w9a0oq2OGZsrEe2R/O17eZUVFRU7Oy86Iu6AdbAAAAAAAAAAAAAAAAAAAAAAAAAAAAAAAAAAAAAAABQlwrd8dd9beM6JXcZtnorTQs5902WghmVPlTO+PciIXvZ0cFdp+z1zQxBm1jHG2Y1PeMR1DaiqioLjQsp41bG2NrY2vpHuRqNY1Odyr7J4rkVNLHq+zV76277iBSsC6nkVNLHq+zV76277iORU0ser7NXvrbvuIFKwLqeRU0ser7NXvrbvuI5FTSx6vs1e+tu+4gUrAup5FTSx6vs1e+tu+4jkVNLHq+zV76277iBSsC6nkVNLHq+zV76277iORU0ser7NXvrbvuIFKwLqeRU0ser7NXvrbvuI5FTSx6vs1e+tu+4gUrHeNCGKH4Q1h5S3Zj1as+Jaa17p2qzelVPjSfYsx5FTSx6vs1e+tu+4n6+D+B802YHxbZMaWTH+aHljYLjTXSk6rc7erOrwStkZxkSiRVTjNTfZUX2UAnQAAAAAAAAAABzfPPUNlJpywm/GGa+LKe1Uzt20tK3/CVddIib9TghTzT17a8zU6XKic59HUxqJwTphyoumZuM50e6Fq09rt7XIktxrnIvUoGe2qbud+SxrndjZc92eueuYmonMSvzJzJu7qy4Vi8SCBm6U9FToq8SCBm/mGN39tVVVVVVVVQn/mjw3GJpqpafJXJu2UdM1V2q8UVElRJIn+wp3xoz515yu38Mrq0pLg6sqrRl/WwPX/NJbPUNjYnaarKhr/0uUgmALf8kOGjwBiOsobFnpl3VYVmnekUt5tEy1lCxVT/ACkkLkSaNm/Ns1ZV7Pb2sRwli/C2PMPUWLMF4ht97s1xjSWlrqGds0MrV7Tmqqb9tOlF5l5zLeSb0P61saaUMfU0E9dPX5fXiqY2/wBndu9GNXZFqqdN/MTMTn5uZ6JxVT8FWhoNB+bhvEdixfYLdirDF1p7laLtTR1lFWU7+NHPDI1HMe1e0qKh+kAAAAAAAAAAAAAAAAAAAAAAAAAAAAAAAAAAAAAAAAAAAAAAAAAAAAAAAAAAAAAAAAAAAAAAAABSHwvOetTmLqKZlXb6xXWPLmlbSqxrl4klxqGMlqHqnQqtasUXRzLG/tkEz22eGJajGedGPMW1VQ6eS8Yludasjl33SSpkcnxbKiInQibIeJAAAAAALl+Bpz0qsaZQYgyUvdWstXgOqZU21XuVXLbqtz3cRN+xHM2T2klYnYLESjTgfsXz4e1fQWBtQrIcUYduNufHvzPdGjKpvN208ju5+nZV7al5YAAAAAAAAAAAAAAAAAAAAAAAAAAAAAAAAAAAAAAAAAAAAAAAAAAAAAAAAAAAAAAAAAAAAAAAAGYzO6xT4Xznx7hupgdDJa8TXOjdG5uyt6nVSN22+I8UTd4W7JKty21OVGYVLR8Sx5i0rLlBIxF4ja2JjIqqNeb8JVRkq9P+W+JIRAAAAAAE0OCLw0++6zbPdGwq9MO2K6XJzkTfiI6HyLxl7XPVInxl7BWnwLGSlXYMA4vz0vFF1N2KaiOz2d7ul1JTOcs72834LpnNb09MCllgAAAAAAAAAAAAAAAAAAAAAAAAAAAAAAAAAAAAAAAAAAAAAAAAAAAAAAAAAAAAAAAAAAAAAAAAHDNYulrDmrLKCrwBcqpluvVFJ5PsF0c3dKOta1UTjonOsT0VWPROfZd052oZ9s0sq8fZL43uOXmZWHKmy322P4stPMm6Pav4Msb08zJG5E3a9qqip0KafDjGpPSNkrqoscFtzQsEi3Ggjkjtt5oZeo11Fx+dUY/ZUe3dEXiPa5u/Psi84Gb4Fg2cHAz5+YVq5avKHE1jxzbVkd1KnnlS217Wb+Z4zZV6i7ZOZVSVN1/JToTj8HBg65J65aBcj5InN/Clkv8Aa0iRO3x/JOy+0m6gRZO7aRdI2YerPMamw1hyjqKLDVFKx+IcQui/xe3U/SrUVeZ8705o4k3VVXjLsxr3tmNkHwLmJ62so75qLx3SW6hbtJJYsPvWapk50/wclS5qRx9nfqbZOZeZyLzpaBldlVl/kvguhy+yywzS2KxW/jLFTQbqrnuXd0kj3KrpHuXpc5VVebn5kA+1l1gDDGVeBbHlzguhWjsmHqKKgooVdxnJGxNt3OXnc5V3c5y9Kqq9k9EAAAAAAAAAAAAAAAAAAAAAAAAAAAAAAAAAAAAAAAAAAAAAAAAAAAAAAAAAAAAAAAAAAAAAAiRwies5+lHLOC2YNdDJmBi5k1PZVkayRtuiam0lc+NyK16sVzUYxyK1z13cjmtc1Q6hqM1dZIaX7G645l4pj8tJYlkobFRKk1xrFTo4kW6cRvP+G9Ws9nfmKjtTfCl5+Z5vqcPYFq5MusJvcrW01qqHJcKliKu3VqtNnJuipuyPiN7C8bpIhYmxPiLGd+rsU4tvldeLvcpnT1ldWzumnnkXpc57lVVU/MAknpn19Z96b8VOudPiWtxbYK1/GudivdbJNFUdCdUjkcquhlRE5nt5l5uM1ycxcppy1y6etS9HS02DcYQW3EssbVmw5dXJT1zH7Jxmxo7zM6Iq7caNXeyidBnYP7hmmppo6inlfFLE5HsexytcxyLuioqc6Ki9kDVKDOvltr41eZU0bbZhTPC+S0LURraa7tiujGNT8lnktkixp7DFQ6DX8LFrYrKFKSDMK0UUqdNTBh6iWVfikjcz9DQL5nOaxqve5Gtam6qq7IiEPtUfCa5C5BW+tsmELxSY9xrGjoorZa5+PS00u3MtTUt3Y1EXpYxXP5tlRvSlN2ZWqvUdm+kkWYmc+KbtSyoqPovJzqekdvzL/i8PEi/snKgO3Zha1NTuY+YMmZNyzhxJarpzNpobJcZqClpI0XdIooo3oiN7e+6u/KVykrNN/DGZk4PfRYb1C2FmMbQ1WROvVCxlPdIWcycZ7E2iqNk/2bl6VcqlcoA025O545WZ+YUjxnlRjChvtucjUmSF3FnpJHJv1OeJ2z4n9PM5E323TdOc92Zlckc9MzNPOPKLMPK7EUtsuVK5EnhVVdTV0O+7oKiLdEkjd2U5lRdnNVrkRyaH9OmfOEtSeUdkzawc2WCmujHR1VHMqLLRVca8WaB6p0q13Q7m4zVa7ZNwOlgAAAAAAAAAAAAAAAAAAAAAAAAAAAAAAAAAAAAAAAAAAAAAAAAAAAAAAAAAAAAAAAFAvCf5oT5laxMYU7Kt8tvwikGG6Jiv3bH1BiLOiJ0J/jD5y/Ouraa20VRca2VIqelifNK9ehrGoquVfaRFMvGN8T1mN8Z3/Gdxc51Xf7pVXSdXLuqyTyukdv7O7lA/FAAAAAAAAAAAAACzLgTs257djrHOSVdVL5EvNvZiGgjcvmW1NO9sUyN/1nxyxqvsQJ2is0ktwb+NlwLrQy1rny8WC6181kmbvzP8lwSQRov/AFr419tqAaEgAAAAAAAAAAAAAAAAAAAAAAAAAAAAAAAAAAAAAAAAAAAAAAAAAAAAAAAAAAAAAAAci1d4qkwVpdzUxJA/iT02E7lHA/fbizSwOijX4nvapm0L/eFDvyWLRDmGjJOJNcfKygi9nj3Cn46fNo8oCAAAAAAAAAAAAAAB6zKPFH9w+a+C8a9U6n5QYht104++3F6hUxyb/wBk8mANVAPHZM4nXG2T+BsZOer1v2GrZc1cvZWeljk3/tHsQAAAAAAAAAAAAAAAAAAAAAAAAAAAAAAAAAAAAAAAAAAAAAAAAAAAAAAAAAAAAACBvDM3x1s0oWq2xv2W8YyoKZ7d+dWMpquZV9rjRM/ShSSXw8I5gnDOYVjwNhvGFtWvtrKuurkg6vJEnV2MhYx+8bmquzZZE232810dBBzrXMivUN+s6zxoEAQT+61zIr1DfrOs8aOtcyK9Q36zrPGgQBBP7rXMivUN+s6zxo61zIr1DfrOs8aBAEE/utcyK9Q36zrPGjrXMivUN+s6zxoEAQT+61zIr1DfrOs8af6mlvIlf+Q36zrPGgQABP7rXMivUN+s6zxoTS5kVv8AiN+s6zxoEAQT/XS5kSn/ACG/WdZ40/zrXMidt/7hv1nWeNAsd4O3E78W6LMq7pI9XOp7TJbOfpRKOpmpUT9EKEjSN+gawWnCWRUmFMP0zqW1Wq+VcVHTrK+TqTHsimciOequXeSWR3Oq/hdokgAAAAAAAAAAAAAAAAAAAAAAAAAAAAAAAAAAAAAAAAAAAAAAAAAAAAAAAAAAAH//2Q==;" vertex="1" parent="1">
          <mxGeometry x="1530" y="-680" width="490" height="571" as="geometry" />
        </mxCell>
        <mxCell id="wylEA1u29GKuscuuTOL2-2" value="&lt;font color=&quot;#ffffff&quot; style=&quot;font-size: 20px;&quot;&gt;Host PC&lt;/font&gt;" style="text;html=1;strokeColor=none;fillColor=none;align=center;verticalAlign=middle;whiteSpace=wrap;rounded=0;" vertex="1" parent="1">
          <mxGeometry x="1560" y="-460" width="100" height="60" as="geometry" />
        </mxCell>
        <mxCell id="wylEA1u29GKuscuuTOL2-3" value="&lt;font color=&quot;#ffffff&quot;&gt;&lt;span style=&quot;font-size: 20px;&quot;&gt;Presentation PC&lt;/span&gt;&lt;/font&gt;" style="text;html=1;strokeColor=none;fillColor=none;align=center;verticalAlign=middle;whiteSpace=wrap;rounded=0;" vertex="1" parent="1">
          <mxGeometry x="1890" y="-680" width="100" height="60" as="geometry" />
        </mxCell>
        <mxCell id="wylEA1u29GKuscuuTOL2-4" value="&lt;span style=&quot;font-size: 20px;&quot;&gt;Participant screen&lt;/span&gt;" style="text;html=1;strokeColor=none;fillColor=none;align=center;verticalAlign=middle;whiteSpace=wrap;rounded=0;" vertex="1" parent="1">
          <mxGeometry x="1890" y="-580" width="100" height="60" as="geometry" />
        </mxCell>
        <mxCell id="wylEA1u29GKuscuuTOL2-5" value="&lt;span style=&quot;font-size: 20px;&quot;&gt;Experimenter screen&lt;/span&gt;" style="text;html=1;strokeColor=none;fillColor=none;align=center;verticalAlign=middle;whiteSpace=wrap;rounded=0;" vertex="1" parent="1">
          <mxGeometry x="1560" y="-340" width="100" height="60" as="geometry" />
        </mxCell>
      </root>
    </mxGraphModel>
  </diagram>
</mxfile>
